<?xml version="1.0" encoding="utf-8"?>
<!-- Generator: Adobe Illustrator 25.0.0, SVG Export Plug-In . SVG Version: 6.00 Build 0)  -->
<svg version="1.1" id="Camada_1" xmlns="http://www.w3.org/2000/svg" xmlns:xlink="http://www.w3.org/1999/xlink" x="0px" y="0px"
	 viewBox="0 0 512 512" style="enable-background:new 0 0 512 512;" xml:space="preserve">
<style type="text/css">
	.st0{fill-rule:evenodd;clip-rule:evenodd;fill:#FFFFFF;}
</style>
<path class="st0" d="M178.7,477.7c75,0,139.2-41.7,165.7-100.8c0.3-0.7-106.4,27.7-103,17.7c1.5-4.5,67-28.4,114.6-56.3
	c27.4-16,40-50,40-50s-46.2,22.4-69.5,28.1c-47,11.5-88.4,10.2-88.4,9c0-2.6,68.7-15.6,164.3-73.9c44.9-27.4,57.1-74.6,57.1-74.6
	s-49.4,29.4-79.3,39.1c-70.8,23-135.5,30-135.5,26.9c0-6.7,56.9-22.3,117.2-51.5c31.4-15.2,58.5-35,90-57.1
	C503.5,98.3,512,34,512,34s-50.8,32.8-75.6,43.6c-102.3,44.9-192.6,68.4-257.7,73.5C80.4,158.9,0,227.5,0,316.5
	C0,405.5,80,477.7,178.7,477.7z"/>
</svg>
