<?xml version="1.0" encoding="utf-8"?>
<!-- Generator: Adobe Illustrator 25.0.0, SVG Export Plug-In . SVG Version: 6.00 Build 0)  -->
<svg version="1.1" id="Camada_1" xmlns="http://www.w3.org/2000/svg" xmlns:xlink="http://www.w3.org/1999/xlink" x="0px" y="0px"
	 viewBox="0 0 512 512" style="enable-background:new 0 0 512 512;" xml:space="preserve">
<style type="text/css">
	.st0{fill-rule:evenodd;clip-rule:evenodd;fill:#FFFFFF;}
</style>
<path class="st0" d="M453.5,424c0,0-40.2,30.8-157.3,30.8c-110.2,0-182.6-87.7-182.6-199.5c0-122.4,79-172,147.6-172
	c101.5,0,165.5,54.5,165.5,135c0,66.6-54,113.5-109.5,113.5c-47.2,0-90.8-23.4-90.8-87.8c0-36.7,17.1-79.6,54.6-79.6
	c39.5,0,53.6,23.2,53.6,55.2c0,23.7-17.7,39.8-33.4,39.8c-13.2,0-27-8.6-27-24.8c0-8.2,8.1-33.6-6.2-33.6
	c-12.7,0-18.8,27.9-18.8,40.7c0,26.3,18.4,48.8,48.2,48.8c41.4,0,73.8-33.2,73.8-75.6c0-44.2-28.8-86.7-96.8-86.7
	c-58.3,0-104.5,49-104.5,124.7c0,94.9,57.6,141.9,147.4,141.9c84.8,0,176.4-72,176.4-178.6C493.6,81,407,0.7,256.2,0.7
	C116.6,0.7,18.4,110.1,18.4,255.3c0,146.1,109.8,255.8,277.7,255.8c117.1,4.1,173.9-63.2,173.9-63.2s17.7-17.1,10.2-23.8
	C470.6,415.4,453.5,424,453.5,424z"/>
</svg>
