<?xml version="1.0" encoding="utf-8"?>
<!-- Generator: Adobe Illustrator 25.0.0, SVG Export Plug-In . SVG Version: 6.00 Build 0)  -->
<svg version="1.1" id="Camada_1" xmlns="http://www.w3.org/2000/svg" xmlns:xlink="http://www.w3.org/1999/xlink" x="0px" y="0px"
	 viewBox="0 0 512 512" style="enable-background:new 0 0 512 512;" xml:space="preserve">
<style type="text/css">
	.st0{fill-rule:evenodd;clip-rule:evenodd;}
</style>
<path class="st0" d="M877-139.5c0,0-64.6,51.8-193,30.4c-97.5-16.3-149.5-123.7-149.5-181.5c0-136.9,101.3-168.1,169.9-168.1
	c68.5,0,113.2,66.8,113.2,118.5s-36.6,97-93.5,97c-56.9,0-73.8-40-73.8-76.7c0-36.7,29.7-49.7,56.8-49.7c27.1,0,36.4,23.1,36.4,43
	c0,19.9-15.4,27-28.3,27c-12.9,0-14.1-6.5-19.1-13.3c-4.9-6.8,6.3-32.7-12.2-32.7c-18.5,0-21.9,29.7-21.9,29.7s6.7,57.3,62,56.3
	c55.3-1,81.5-43.7,73.9-86c-7.6-42.3-48.7-87.3-120.8-78.2S575.7-341.8,588.6-264c13,77.8,106.2,122.9,179.5,106.7
	c73.3-16.2,146.3-69.3,146.3-203.8c0-134.6-116.5-215.4-255.5-202.1c-139,13.3-225.2,134.8-219.7,280.8
	c5.5,146,144,225.5,261.1,229.6c117.1,4.1,188.9-63.7,188.9-63.7s16.1-14.4,9.8-25.6C892.8-153.5,877-139.5,877-139.5z"/>
<path class="st0" d="M379.1-140.7c0,0-40.2,30.8-157.3,30.8c-110.2,0-182.6-87.7-182.6-199.5c0-122.4,79-172,147.6-172
	c101.5,0,165.5,54.5,165.5,135c0,66.6-54,113.5-109.5,113.5c-47.2,0-90.8-23.4-90.8-87.8c0-36.7,17.1-79.6,54.6-79.6
	c39.5,0,53.6,23.2,53.6,55.2c0,23.7-17.7,39.8-33.4,39.8c-13.2,0-27-8.6-27-24.8c0-8.2,8.1-33.6-6.2-33.6
	c-12.7,0-18.8,27.9-18.8,40.7c0,26.3,18.4,48.8,48.2,48.8c41.4,0,73.8-33.2,73.8-75.6c0-44.2-28.8-86.7-96.8-86.7
	c-58.3,0-104.5,49-104.5,124.7c0,94.9,57.6,141.9,147.4,141.9c84.8,0,176.4-72,176.4-178.6c0-135.3-86.6-215.6-237.4-215.6
	C42.1-564-56-454.6-56-309.4C-56-163.3,53.8-53.6,221.7-53.6c117.1,4.1,173.9-63.2,173.9-63.2s17.7-17.1,10.2-23.8
	C396.2-149.3,379.1-140.7,379.1-140.7z"/>
</svg>
