<svg width="182" height="50" viewBox="0 0 182 50" fill="none"
                        xmlns="http://www.w3.org/2000/svg">
                        <path
                            d="M12 6C12 9.31371 9.31371 12 6 12C2.68629 12 0 9.31371 0 6C0 2.68629 2.68629 0 6 0C9.31371 0 12 2.68629 12 6Z"
                            fill="white" fill-opacity="0.6" />
                        <path
                            d="M12 6C12 9.31371 9.31371 12 6 12C2.68629 12 0 9.31371 0 6C0 2.68629 2.68629 0 6 0C9.31371 0 12 2.68629 12 6Z"
                            fill="white" fill-opacity="0.6" />
                        <path
                            d="M79.5 6C79.5 9.31371 76.8137 12 73.5 12C70.1863 12 67.5 9.31371 67.5 6C67.5 2.68629 70.1863 0 73.5 0C76.8137 0 79.5 2.68629 79.5 6Z"
                            fill="white" fill-opacity="0.6" />
                        <path
                            d="M79.5 6C79.5 9.31371 76.8137 12 73.5 12C70.1863 12 67.5 9.31371 67.5 6C67.5 2.68629 70.1863 0 73.5 0C76.8137 0 79.5 2.68629 79.5 6Z"
                            fill="white" fill-opacity="0.6" />
                        <path
                            d="M45.5 6C45.5 9.31371 42.8137 12 39.5 12C36.1863 12 33.5 9.31371 33.5 6C33.5 2.68629 36.1863 0 39.5 0C42.8137 0 45.5 2.68629 45.5 6Z"
                            fill="white" fill-opacity="0.6" />
                        <path
                            d="M45.5 6C45.5 9.31371 42.8137 12 39.5 12C36.1863 12 33.5 9.31371 33.5 6C33.5 2.68629 36.1863 0 39.5 0C42.8137 0 45.5 2.68629 45.5 6Z"
                            fill="white" fill-opacity="0.6" />
                        <path
                            d="M113.5 6C113.5 9.31371 110.814 12 107.5 12C104.186 12 101.5 9.31371 101.5 6C101.5 2.68629 104.186 0 107.5 0C110.814 0 113.5 2.68629 113.5 6Z"
                            fill="white" fill-opacity="0.6" />
                        <path
                            d="M113.5 6C113.5 9.31371 110.814 12 107.5 12C104.186 12 101.5 9.31371 101.5 6C101.5 2.68629 104.186 0 107.5 0C110.814 0 113.5 2.68629 113.5 6Z"
                            fill="white" fill-opacity="0.6" />
                        <path
                            d="M181.5 6C181.5 9.31371 178.814 12 175.5 12C172.186 12 169.5 9.31371 169.5 6C169.5 2.68629 172.186 0 175.5 0C178.814 0 181.5 2.68629 181.5 6Z"
                            fill="white" fill-opacity="0.6" />
                        <path
                            d="M181.5 6C181.5 9.31371 178.814 12 175.5 12C172.186 12 169.5 9.31371 169.5 6C169.5 2.68629 172.186 0 175.5 0C178.814 0 181.5 2.68629 181.5 6Z"
                            fill="white" fill-opacity="0.6" />
                        <path
                            d="M147.5 6C147.5 9.31371 144.814 12 141.5 12C138.186 12 135.5 9.31371 135.5 6C135.5 2.68629 138.186 0 141.5 0C144.814 0 147.5 2.68629 147.5 6Z"
                            fill="white" fill-opacity="0.6" />
                        <path
                            d="M147.5 6C147.5 9.31371 144.814 12 141.5 12C138.186 12 135.5 9.31371 135.5 6C135.5 2.68629 138.186 0 141.5 0C144.814 0 147.5 2.68629 147.5 6Z"
                            fill="white" fill-opacity="0.6" />
                        <path
                            d="M10 46C10 48.2091 8.20914 50 6 50C3.79086 50 2 48.2091 2 46C2 43.7909 3.79086 42 6 42C8.20914 42 10 43.7909 10 46Z"
                            fill="white" fill-opacity="0.15" />
                        <path
                            d="M10 46C10 48.2091 8.20914 50 6 50C3.79086 50 2 48.2091 2 46C2 43.7909 3.79086 42 6 42C8.20914 42 10 43.7909 10 46Z"
                            fill="white" fill-opacity="0.15" />
                        <path
                            d="M77.5 46C77.5 48.2091 75.7091 50 73.5 50C71.2909 50 69.5 48.2091 69.5 46C69.5 43.7909 71.2909 42 73.5 42C75.7091 42 77.5 43.7909 77.5 46Z"
                            fill="white" fill-opacity="0.15" />
                        <path
                            d="M77.5 46C77.5 48.2091 75.7091 50 73.5 50C71.2909 50 69.5 48.2091 69.5 46C69.5 43.7909 71.2909 42 73.5 42C75.7091 42 77.5 43.7909 77.5 46Z"
                            fill="white" fill-opacity="0.15" />
                        <path
                            d="M43.5 46C43.5 48.2091 41.7091 50 39.5 50C37.2909 50 35.5 48.2091 35.5 46C35.5 43.7909 37.2909 42 39.5 42C41.7091 42 43.5 43.7909 43.5 46Z"
                            fill="white" fill-opacity="0.15" />
                        <path
                            d="M43.5 46C43.5 48.2091 41.7091 50 39.5 50C37.2909 50 35.5 48.2091 35.5 46C35.5 43.7909 37.2909 42 39.5 42C41.7091 42 43.5 43.7909 43.5 46Z"
                            fill="white" fill-opacity="0.15" />
                        <path
                            d="M111.5 46C111.5 48.2091 109.709 50 107.5 50C105.291 50 103.5 48.2091 103.5 46C103.5 43.7909 105.291 42 107.5 42C109.709 42 111.5 43.7909 111.5 46Z"
                            fill="white" fill-opacity="0.15" />
                        <path
                            d="M111.5 46C111.5 48.2091 109.709 50 107.5 50C105.291 50 103.5 48.2091 103.5 46C103.5 43.7909 105.291 42 107.5 42C109.709 42 111.5 43.7909 111.5 46Z"
                            fill="white" fill-opacity="0.15" />
                        <path
                            d="M179.5 46C179.5 48.2091 177.709 50 175.5 50C173.291 50 171.5 48.2091 171.5 46C171.5 43.7909 173.291 42 175.5 42C177.709 42 179.5 43.7909 179.5 46Z"
                            fill="white" fill-opacity="0.15" />
                        <path
                            d="M179.5 46C179.5 48.2091 177.709 50 175.5 50C173.291 50 171.5 48.2091 171.5 46C171.5 43.7909 173.291 42 175.5 42C177.709 42 179.5 43.7909 179.5 46Z"
                            fill="white" fill-opacity="0.15" />
                        <path
                            d="M145.5 46C145.5 48.2091 143.709 50 141.5 50C139.291 50 137.5 48.2091 137.5 46C137.5 43.7909 139.291 42 141.5 42C143.709 42 145.5 43.7909 145.5 46Z"
                            fill="white" fill-opacity="0.15" />
                        <path
                            d="M145.5 46C145.5 48.2091 143.709 50 141.5 50C139.291 50 137.5 48.2091 137.5 46C137.5 43.7909 139.291 42 141.5 42C143.709 42 145.5 43.7909 145.5 46Z"
                            fill="white" fill-opacity="0.15" />
                    </svg>