<svg width="324" height="338" viewBox="0 0 324 338" fill="none" xmlns="http://www.w3.org/2000/svg">
<path fill-rule="evenodd" clip-rule="evenodd" d="M254.537 183.089H338.679C331.043 269.909 258.143 338 169.34 338C80.536 338 7.63581 269.909 0 183.089H84.142C91.2805 223.673 126.709 254.509 169.34 254.509C211.97 254.509 247.399 223.673 254.537 183.089ZM254.537 152.911H338.679C331.043 66.0907 258.143 -2 169.34 -2C80.5359 -2 7.63579 66.0907 0 152.911H84.142C91.2805 112.327 126.709 81.4911 169.34 81.4911C211.97 81.4911 247.399 112.327 254.537 152.911Z" fill="white" fill-opacity="0.3"/>
<circle cx="169.5" cy="167.5" r="58.5" fill="white" fill-opacity="0.3"/>
</svg>
