<svg class="pokeball" width="76" height="77" viewBox="0 0 76 77" fill="none"
                        xmlns="http://www.w3.org/2000/svg">
                        <path fill-rule="evenodd" clip-rule="evenodd"
                            d="M24.792 42.3696H0C1.2972 61.7092 17.6251 77 37.5767 77C57.5283 77 73.8562 61.7092 75.1534 42.3696H50.8287C49.5415 48.2227 44.2019 52.611 37.8104 52.611C31.4188 52.611 26.0792 48.2227 24.792 42.3696Z"
                            fill="#F0F0F0" />
                        <path fill-rule="evenodd" clip-rule="evenodd"
                            d="M50.3613 35.3514L75.1534 35.3514C73.8562 16.0118 57.5283 0.720927 37.5767 0.720925C17.6251 0.720923 1.2972 16.0118 0 35.3514L24.3247 35.3514C25.6118 29.4983 30.9515 25.1099 37.343 25.1099C43.7345 25.1099 49.0742 29.4983 50.3613 35.3514Z"
                            fill="#F0F0F0" />
                        <ellipse cx="37.3451" cy="38.6462" rx="7.08889" ry="6.98643" fill="#F0F0F0" />
                    </svg>